<svg xmlns="http://www.w3.org/2000/svg" viewBox="0 0 512 512" id="south-indian-food"><circle cx="256" cy="256" r="248.5" fill="#a6f3ba"></circle><path fill="#90f0a9" d="M256 7.5c-2.51 0-5.008.049-7.5.123 133.772 3.966 241 113.644 241 248.377s-107.228 244.41-241 248.377c2.492.074 4.99.123 7.5.123 137.243 0 248.5-111.257 248.5-248.5S393.243 7.5 256 7.5Z"></path><path fill="#fff" d="M256 474.5a218.5 218.5 0 0 1-154.503-373.003 218.5 218.5 0 0 1 309.006 309.006A217.068 217.068 0 0 1 256 474.5Z"></path><path fill="#eee" d="M410.503 101.497A217.068 217.068 0 0 0 256 37.5c-5.029 0-10.03.18-15 .516a218.5 218.5 0 0 1 139.503 372.487A216.873 216.873 0 0 1 241 473.984c4.97.335 9.971.516 15 .516a218.5 218.5 0 0 0 154.503-373.003Z"></path><circle cx="281.648" cy="134.173" r="59.765" fill="#d9f0ff"></circle><circle cx="379.53" cy="249.144" r="59.765" fill="#fff8cc"></circle><path fill="#ffe966" d="M327.068 376.64a128.392 128.392 0 0 1-99.031 67.053L69.815 210.015a128.392 128.392 0 0 1 99.03-67.053Z"></path><path fill="#fff099" d="m326.178 376.672.89-.032a1643.394 1643.394 0 0 0-158.222-233.678l-.361.814a159.104 159.104 0 0 0 13.724 153.646l6.403 9.457a159.104 159.104 0 0 0 137.566 69.793Z"></path><path fill="#ffed80" d="M228.037 443.693A1455.141 1455.141 0 0 1 69.815 210.015l.89-.032a159.109 159.109 0 0 1 137.567 69.797l5.902 8.716a160.71 160.71 0 0 1 13.863 155.197Z"></path><path fill="#272a33" d="M304.463 120.892a7.5 7.5 0 1 0-7.673-7.322 7.5 7.5 0 0 0 7.673 7.322Zm-3.599 22.245a7.5 7.5 0 1 0 7.323-7.674 7.5 7.5 0 0 0-7.323 7.674Zm-30.566-29.745a7.5 7.5 0 1 0-7.673-7.322 7.5 7.5 0 0 0 7.673 7.322Zm-19.195 34.333a7.5 7.5 0 1 0-7.674-7.322 7.5 7.5 0 0 0 7.674 7.322Zm30.547 14.9a7.5 7.5 0 1 0 7.322-7.673 7.5 7.5 0 0 0-7.322 7.674Zm-11.525-28.277a7.5 7.5 0 1 0 7.322-7.674 7.5 7.5 0 0 0-7.322 7.674Zm145.682-38.154A226 226 0 0 0 96.193 415.805 226 226 0 0 0 415.807 96.194ZM405.199 405.2a211 211 0 0 1-298.398-298.4 211 211 0 0 1 298.398 298.4ZM379.53 181.878a67.265 67.265 0 1 0 67.265 67.266 67.341 67.341 0 0 0-67.265-67.266Zm0 119.53a52.265 52.265 0 1 1 52.265-52.264 52.324 52.324 0 0 1-52.265 52.265ZM437.02 74.98A256 256 0 0 0 74.98 437.02 256 256 0 0 0 437.02 74.98Zm-10.607 351.433A241 241 0 0 1 85.587 85.586a241 241 0 0 1 340.826 340.827ZM281.647 201.437a67.265 67.265 0 1 0-67.264-67.265 67.34 67.34 0 0 0 67.264 67.265Zm0-119.53a52.265 52.265 0 1 1-52.264 52.265 52.324 52.324 0 0 1 52.264-52.264Zm127.648 159.737a7.5 7.5 0 0 0-7.5 7.5 22.29 22.29 0 0 1-22.265 22.265 7.5 7.5 0 1 0 0 15 37.307 37.307 0 0 0 37.265-37.265 7.5 7.5 0 0 0-7.5-7.5Zm-74.826 133.838a7.493 7.493 0 0 0-.186-.869 7.637 7.637 0 0 0-.172-.524c-.034-.095-.063-.191-.101-.285a7.53 7.53 0 0 0-.35-.737c-.016-.027-.026-.057-.04-.084a1660.09 1660.09 0 0 0-77.535-125.37 1661.187 1661.187 0 0 0-81.41-109.376c-.027-.034-.06-.063-.088-.096a7.422 7.422 0 0 0-.37-.4 7.429 7.429 0 0 0-.488-.457c-.093-.08-.185-.16-.282-.236a7.253 7.253 0 0 0-.69-.474c-.134-.082-.268-.165-.407-.24-.127-.066-.259-.123-.39-.184q-.33-.15-.674-.27c-.133-.046-.265-.092-.4-.13a7.375 7.375 0 0 0-.838-.183 7.193 7.193 0 0 0-.424-.06c-.162-.018-.326-.024-.491-.03a7.528 7.528 0 0 0-1.115.03c-.043.005-.084.012-.127.016-.012.002-.024.001-.037.003-.01.001-.019.004-.028.006a135.849 135.849 0 0 0-104.528 70.77l-.005.008-.006.012c-.028.053-.058.103-.086.155l.009.004a7.496 7.496 0 0 0 .015 7.117 1468.866 1468.866 0 0 0 74.245 121.944 1468.508 1468.508 0 0 0 84.794 112.938c.03.038.066.07.098.106q.181.21.376.406c.062.06.123.121.186.18.132.123.268.24.408.353.06.048.117.098.178.144a7.534 7.534 0 0 0 1.301.792c.056.026.112.049.168.074a7.48 7.48 0 0 0 .744.286q.278.091.565.16l.187.044c.207.044.418.078.63.105.047.006.092.014.138.019a7.469 7.469 0 0 0 .785.045 7.609 7.609 0 0 0 .838-.047 135.85 135.85 0 0 0 104.71-70.783c.008-.013.018-.025.025-.038.01-.017.016-.035.025-.052l.055-.098a7.598 7.598 0 0 0 .327-.694c.03-.071.05-.144.076-.216.077-.205.148-.41.206-.619.027-.1.05-.2.073-.3q.066-.283.11-.568c.016-.1.032-.2.043-.3.024-.218.038-.435.043-.653.002-.07.009-.139.009-.208a7.492 7.492 0 0 0-.05-.815c-.012-.108-.032-.214-.049-.321ZM156.941 152.537a166.285 166.285 0 0 0-9.259 65.81 167.238 167.238 0 0 0-64.567-15.814 120.838 120.838 0 0 1 73.826-49.996Zm68.805 276.555a1454.618 1454.618 0 0 1-75.86-101.966 1454.915 1454.915 0 0 1-67.403-109.63 151.596 151.596 0 0 1 119.58 66.488l5.902 8.717a153.191 153.191 0 0 1 17.781 136.391Zm14.104 5.045a168.747 168.747 0 0 0 9.126-65.95 166.166 166.166 0 0 0 64.783 15.947 120.84 120.84 0 0 1-73.909 50.003Zm7.03-83.875a168.668 168.668 0 0 0-26.495-65.971l-5.903-8.717a167.077 167.077 0 0 0-50.958-48.65 151.364 151.364 0 0 1 7.507-69.28 1647.818 1647.818 0 0 1 72.662 98.42 1647.17 1647.17 0 0 1 70.55 113.09 151.252 151.252 0 0 1-67.363-18.892Zm140.15-130.884a7.5 7.5 0 0 0-7.5-7.5 37.308 37.308 0 0 0-37.264 37.266 7.5 7.5 0 1 0 15 0 22.29 22.29 0 0 1 22.264-22.266 7.5 7.5 0 0 0 7.5-7.5Z"></path></svg>